<svg width="155" height="33" viewBox="0 0 155 33" fill="none" xmlns="http://www.w3.org/2000/svg">
<path fill-rule="evenodd" clip-rule="evenodd" d="M92.0308 18.1491H99.0974V0.534912H92.0308V18.1491ZM116.057 13.503C117.824 13.503 117.588 11.8182 116.116 11.8182L106.4 11.2055C97.8019 10.3376 99.4507 0.534912 106.4 0.534912H123.83V5.12992H109.049C107.695 5.12992 107.872 6.71265 109.049 6.71265L117.883 7.2232C126.245 7.83587 126.834 18.1491 117.883 18.1491H101.747V13.452H116.057V13.503ZM133.606 15.29H145.266L147.15 18.1491H154.452L144.088 0.534912H134.548L124.302 18.1491H131.721L133.606 15.29ZM139.377 5.43626L142.91 10.8482H135.961L139.377 5.43626ZM82.0787 13.503C83.8454 13.503 83.6098 11.8182 82.0787 11.8182L72.3622 11.2055C63.8234 10.3376 65.4723 0.534912 72.4211 0.534912H89.852V5.12992H75.071C73.7166 5.12992 73.8933 6.71265 75.0121 6.71265L83.8454 7.2232C92.2075 7.83587 92.7964 18.1491 83.8454 18.1491H67.71V13.452H82.0787V13.503ZM7.17302 6.86581V18.1491H0.106445V0.534912H12.1196L17.6551 9.11226L23.4261 0.534912H34.9682V18.1491H27.9016V7.27426L20.5995 18.1491H14.5929L7.17302 6.86581ZM45.2736 15.29H56.9335L58.8179 18.1491H66.0611L55.7557 0.534912H46.157L35.9104 18.1491H43.3303L45.2736 15.29ZM50.9858 5.43626L54.5191 10.8482H47.5703L50.9858 5.43626ZM3.40411 30.9643C3.05078 30.9643 2.87412 30.8111 2.87412 30.5048V23.7144H0.754145C0.341928 23.7144 0.224152 23.5612 0.224152 23.2549V23.1017C0.224152 22.7443 0.400817 22.6422 0.754145 22.6422H6.58407C6.9374 22.6422 7.11406 22.7954 7.11406 23.1017V23.2549C7.11406 23.5612 6.9374 23.7144 6.58407 23.7144H4.52299V30.5048C4.52299 30.8622 4.34632 30.9643 3.99299 30.9643H3.40411ZM9.46986 24.8378C9.11654 24.8378 8.93987 24.9399 8.93987 25.2973H8.88098V28.8201C8.88098 30.1986 9.76431 31.0666 11.8254 31.0666C12.7087 31.0666 14.0631 30.8623 14.4165 30.7602C14.7109 30.7092 14.9465 30.5049 14.9465 30.1986V25.2973C14.9465 24.9909 14.7698 24.8378 14.4165 24.8378H13.8865C13.5331 24.8378 13.3565 24.9399 13.3565 25.2973V29.7902C13.062 29.8923 12.3554 29.9944 11.8843 29.9944C10.9421 29.9944 10.471 29.4838 10.471 28.718V25.2973C10.471 24.9909 10.3532 24.8378 9.94097 24.8378H9.46986ZM34.4376 30.5048C34.4376 30.8622 34.2609 30.9643 33.9076 30.9643H33.3776C33.0243 30.9643 32.8476 30.8111 32.8476 30.5048V27.1862C32.8476 26.3693 32.4354 25.8077 31.4932 25.8077C31.0221 25.8077 30.3743 26.0119 30.0798 26.2161V30.5048C30.0798 30.8622 29.9032 30.9643 29.5499 30.9643H29.0199C28.6665 30.9643 28.4899 30.8111 28.4899 30.5048V26.7267C28.431 26.2161 28.0188 25.8587 27.1354 25.8587C26.6643 25.8587 26.0166 26.0119 25.7221 26.114V30.5048C25.7221 30.8622 25.5455 30.9643 25.1921 30.9643H24.6621C24.3088 30.9643 24.1321 30.8111 24.1321 30.5048V25.8587C24.1321 25.5524 24.3088 25.2971 24.6621 25.195C25.251 24.9397 26.1932 24.7355 27.2532 24.7355C28.1365 24.7355 28.7843 24.8887 29.2554 25.144C29.9621 24.8887 30.8454 24.7355 31.6109 24.7355C33.5542 24.7355 34.4376 25.6545 34.4376 27.0841V30.5048ZM38.7965 24.8378C38.4432 24.8378 38.2665 24.9399 38.2665 25.2973H38.2076V28.8201C38.2076 30.1986 39.0909 31.0666 41.152 31.0666C42.0353 31.0666 43.3898 30.8623 43.7431 30.7602C44.0375 30.7092 44.2731 30.5049 44.2731 30.1986V25.2973C44.2731 24.9909 44.0964 24.8378 43.7431 24.8378H43.2131C42.8598 24.8378 42.6831 24.9399 42.6831 25.2973V29.7902C42.3887 29.8923 41.682 29.9944 41.2109 29.9944C40.2687 29.9944 39.7976 29.4838 39.7976 28.718V25.2973C39.7976 24.9909 39.6798 24.8378 39.2676 24.8378H38.7965ZM54.3432 30.5048C54.3432 30.8622 54.1665 30.9643 53.8132 30.9643H53.2832C52.9298 30.9643 52.7532 30.8111 52.7532 30.5048V27.1862C52.7532 26.3693 52.341 25.8587 51.3399 25.8587C50.8099 25.8587 50.1032 26.0119 49.7499 26.114V30.5048C49.7499 30.8622 49.5732 30.9643 49.2199 30.9643H48.6899C48.3366 30.9643 48.1599 30.8111 48.1599 30.5048V25.8587C48.1599 25.5524 48.3366 25.3482 48.6899 25.195C49.2788 24.9397 50.3388 24.7355 51.4576 24.7355C53.4598 24.7355 54.2843 25.6035 54.2843 26.982V30.5048H54.3432ZM61.4685 29.9934C60.2318 29.9934 59.5841 29.3808 59.5841 27.9512V27.798C59.5841 26.5217 60.1141 25.8069 61.3507 25.8069C61.8218 25.8069 62.2929 25.909 62.7052 26.1132V29.8403C62.4696 29.8913 61.9396 29.9934 61.4685 29.9934ZM62.7052 22.8456V25.041C62.2341 24.8368 61.5863 24.6836 60.8796 24.6836C58.8185 24.6836 57.8763 25.8069 57.8763 27.798V27.9512C57.8763 30.2998 59.2896 31.0656 61.3507 31.0656C62.2466 31.0656 63.3021 30.881 63.6569 30.8189L63.7063 30.8103C64.1774 30.7593 64.2363 30.5551 64.2363 30.2487V22.8456C64.2363 22.5393 64.1185 22.3861 63.7063 22.3861H63.2351C62.8818 22.3861 62.7052 22.4883 62.7052 22.8456ZM73.0095 27.7988C73.0095 26.4714 72.4206 25.7566 71.3017 25.7566C70.124 25.7566 69.594 26.4714 69.594 27.7988V28.0031C69.594 29.2795 70.1829 30.0453 71.3017 30.0453C72.4206 30.0453 73.0095 29.2795 73.0095 28.0031V27.7988ZM67.8862 27.7988C67.8862 25.7566 69.064 24.7355 71.3017 24.7355C73.4806 24.7355 74.7172 25.7566 74.7172 27.7988V28.0031C74.7172 30.0453 73.5395 31.1175 71.3017 31.1175C69.1229 31.1175 67.8862 30.0453 67.8862 28.0031V27.7988ZM78.1327 31.73C78.0149 32.0363 78.1915 32.1895 78.5449 32.1895H78.8393C79.1926 32.1895 79.4282 32.0363 79.546 31.73L80.2526 29.7899C80.3704 29.4325 80.3115 29.3304 79.8993 29.3304H79.2515C78.8982 29.3304 78.7215 29.4836 78.6038 29.7899L78.1327 31.73ZM89.263 25.8579H89.0275C88.6742 25.8579 88.4975 25.7047 88.4975 25.3984V25.2963C88.4975 24.9389 88.6742 24.8368 89.0275 24.8368H89.3219V23.9688C89.3219 23.6114 89.4986 23.5093 89.8519 23.5093H90.323C90.7352 23.5093 90.853 23.6625 90.853 23.9688V24.8368H91.7952C92.2074 24.8368 92.3252 24.9899 92.3252 25.2963V25.3984C92.3252 25.7558 92.1486 25.8579 91.7952 25.8579H90.853V29.0233C90.853 29.5339 91.0886 29.8913 91.7363 29.8913C91.8541 29.8913 92.0308 29.8913 92.2074 29.8402C92.443 29.7892 92.5608 29.9934 92.5608 30.2997V30.4529C92.5608 30.7592 92.443 30.8613 92.0897 30.9124C91.913 30.9634 91.7363 30.9634 91.5597 30.9634C89.9108 30.9634 89.263 30.4018 89.263 29.0233V25.8579ZM96.2713 24.8378C95.918 24.8378 95.7413 24.9399 95.7413 25.2973H95.6824V28.8201C95.6824 30.1986 96.5657 31.0666 98.6268 31.0666C99.5101 31.0666 100.865 30.8623 101.218 30.7602C101.512 30.7092 101.748 30.5049 101.748 30.1986V25.2973C101.748 24.9909 101.571 24.8378 101.218 24.8378H100.688C100.335 24.8378 100.158 24.9399 100.158 25.2973V29.7902C99.8635 29.8923 99.1568 29.9944 98.6857 29.9944C97.7435 29.9944 97.2724 29.4838 97.2724 28.718V25.2973C97.2724 24.9909 97.1546 24.8378 96.7424 24.8378H96.2713ZM112.466 27.441H115.646C115.646 26.3688 115.116 25.7562 114.115 25.7562C112.996 25.7562 112.525 26.3178 112.466 27.441ZM117.118 30.3512C117.177 30.6575 117.059 30.8617 116.706 30.9128C116.235 31.0149 115.41 31.0659 114.586 31.0659C112.112 31.0659 110.758 30.1469 110.758 27.9515V27.7473C110.758 25.7051 111.818 24.684 113.938 24.684C116.058 24.684 117.118 25.603 117.118 27.6452V27.7984C117.118 28.1558 116.941 28.3089 116.588 28.3089H112.466C112.584 29.5343 113.231 29.9938 114.821 29.9938C115.486 29.9938 115.959 29.9275 116.333 29.875C116.423 29.8624 116.508 29.8505 116.588 29.8406C116.941 29.7895 117.059 29.9427 117.118 30.198V30.3512ZM125.244 25.8587C125.598 25.9098 125.657 25.8587 125.716 25.3992C125.774 24.9908 125.657 24.9397 125.303 24.8887C125.127 24.8376 124.538 24.7355 123.537 24.7355C122.006 24.7355 120.533 24.9908 120.533 26.4203C120.533 27.6166 121.652 27.8881 122.671 28.1354C123.522 28.3418 124.302 28.5313 124.302 29.2284C124.302 29.6879 123.949 30.0453 122.771 30.0453C122.064 30.0453 121.358 29.9432 121.063 29.8921C120.71 29.8921 120.474 29.9432 120.474 30.4027V30.4537C120.474 30.8111 120.592 30.9132 121.004 30.9643C121.358 31.0154 122.3 31.1175 123.007 31.1175C124.42 31.1175 126.01 30.709 126.01 29.2284C126.01 27.7802 124.694 27.4731 123.617 27.2218C122.872 27.0479 122.241 26.9007 122.241 26.4203C122.241 25.8587 122.948 25.7566 123.89 25.7566C124.564 25.7566 124.827 25.7962 125.122 25.8405C125.162 25.8465 125.202 25.8526 125.244 25.8587ZM129.838 25.8579H129.543C129.19 25.8579 129.013 25.7047 129.013 25.3984V25.2963C129.013 24.9389 129.19 24.8368 129.543 24.8368H129.838V23.9688C129.838 23.6114 130.014 23.5093 130.368 23.5093H130.839C131.251 23.5093 131.369 23.6625 131.369 23.9688V24.8368H132.311C132.723 24.8368 132.841 24.9899 132.841 25.2963V25.3984C132.841 25.7558 132.664 25.8579 132.311 25.8579H131.428V29.0233C131.428 29.5339 131.663 29.8913 132.311 29.8913C132.429 29.8913 132.606 29.8913 132.782 29.8402C133.018 29.7892 133.136 29.9934 133.136 30.2997V30.4529C133.136 30.7592 133.018 30.8613 132.664 30.9124C132.488 30.9634 132.311 30.9634 132.134 30.9634C130.486 30.9634 129.838 30.4018 129.838 29.0233V25.8579ZM138.611 30.9127C138.964 30.8106 139.023 30.6064 138.964 30.3001H138.905C138.847 30.0448 138.788 29.9427 138.611 29.9427C138.552 29.9427 138.493 29.9554 138.434 29.9682C138.375 29.981 138.317 29.9937 138.258 29.9937C137.963 29.9937 137.845 29.7895 137.845 29.3811V25.3477C137.845 25.0413 137.728 24.8882 137.315 24.8882H136.844C136.491 24.8882 136.314 24.9903 136.314 25.3477V29.3811C136.314 30.7085 136.903 31.0148 137.845 31.0148C138.14 31.0148 138.375 30.9638 138.611 30.9127ZM136.314 23.5607C136.314 23.8671 136.432 24.0202 136.844 24.0202H137.433C137.787 24.0202 137.963 23.8671 137.963 23.5607V23.0502C137.963 22.7438 137.845 22.5907 137.433 22.5907H136.844C136.491 22.5907 136.314 22.6928 136.314 23.0502V23.5607ZM144.912 30.4022C144.912 30.7596 144.853 30.8106 144.5 30.8617C144.265 30.9128 143.97 30.9638 143.735 30.9638C142.792 30.9638 142.262 30.5554 142.262 29.33V22.7949C142.262 22.4375 142.439 22.3354 142.792 22.3354H143.322C143.676 22.3354 143.852 22.4886 143.852 22.7949V29.33C143.852 29.7385 143.97 29.9427 144.265 29.9427C144.334 29.9427 144.423 29.9252 144.497 29.9107C144.549 29.9004 144.593 29.8916 144.618 29.8916C144.853 29.8916 144.912 30.0448 144.912 30.249V30.4022ZM151.096 25.7566C152.214 25.7566 152.803 26.4714 152.803 27.7988V28.0031C152.803 29.2795 152.214 30.0453 151.096 30.0453C149.977 30.0453 149.388 29.2795 149.388 28.0031V27.7988C149.388 26.4714 149.918 25.7566 151.096 25.7566ZM151.096 24.7355C148.858 24.7355 147.68 25.7566 147.68 27.7988V28.0031C147.68 30.0453 148.917 31.1175 151.096 31.1175C153.333 31.1175 154.511 30.0453 154.511 28.0031V27.7988C154.511 25.7566 153.274 24.7355 151.096 24.7355Z" fill="white"/>
</svg>
